<svg width="818" height="153" viewBox="0 0 818 153" fill="none" xmlns="http://www.w3.org/2000/svg">
<g clip-path="url(#clip0)">
<path d="M193.632 130.756L177.976 24.3562H194.24L202.6 87.7402C202.701 88.1455 202.803 88.8549 202.904 89.8682C203.107 90.8815 203.259 91.8442 203.36 92.7562C203.461 93.5669 203.563 94.3776 203.664 95.1882C203.867 93.8709 204.373 91.3376 205.184 87.5882L217.952 24.3562H227.68L240.6 87.2842C241.512 91.7429 242.019 94.2255 242.12 94.7322C242.221 93.7189 242.424 92.3002 242.728 90.4762C243.032 88.6522 243.184 87.6389 243.184 87.4362L250.48 24.3562H267.656L251.848 130.756H237.56L224.032 65.7002C223.424 62.5589 222.968 59.9749 222.664 57.9482C222.563 58.8602 222.309 60.2282 221.904 62.0522C221.6 63.7749 221.397 64.9402 221.296 65.5482L207.92 130.756H193.632Z" fill="black"/>
<path d="M317.088 42.2922C314.251 42.2922 311.819 41.2789 309.792 39.2522C307.765 37.2255 306.752 34.7429 306.752 31.8042C306.752 28.8655 307.765 26.4335 309.792 24.5082C311.819 22.4815 314.251 21.4682 317.088 21.4682C320.027 21.4682 322.509 22.4815 324.536 24.5082C326.563 26.4335 327.576 28.8655 327.576 31.8042C327.576 34.7429 326.563 37.2255 324.536 39.2522C322.509 41.2789 320.027 42.2922 317.088 42.2922ZM325.904 115.404H347.336V130.756H286.992V115.404H308.424V68.4362H286.992V53.0842H325.904V115.404Z" fill="black"/>
<path d="M418.808 115.404H441.456V130.756H378.68V115.404H401.328V36.3642H383.24L375.184 21.0122H418.808V115.404Z" fill="black"/>
<path d="M522.2 38.0362C518.451 38.0362 515.36 38.6949 512.928 40.0122C510.496 41.3295 509.28 43.2549 509.28 45.7882V53.0842H535.424V68.4362H509.28V115.404H529.952V130.756H475.08V115.404H491.8V68.4362H475.08V53.0842H491.8V42.4442C491.8 35.1482 494.384 30.0309 499.552 27.0922C504.822 24.0522 511.104 22.5322 518.4 22.5322C525.798 22.5322 531.979 23.7989 536.944 26.3322V40.7722C532.587 38.9482 527.672 38.0362 522.2 38.0362Z" fill="black"/>
<path d="M617.688 51.2602C624.68 51.2602 630.76 52.6282 635.928 55.3642V84.0922H618.904V67.5242H617.384C609.379 67.5242 603.198 69.3989 598.84 73.1482C594.483 76.8975 592.304 82.5216 592.304 90.0202V115.404H614.04V130.756H558.408V115.404H574.824V68.4362H558.408V53.0842H591.088V65.5482C593.216 61.0895 596.712 57.5935 601.576 55.0602C606.44 52.5269 611.811 51.2602 617.688 51.2602Z" fill="black"/>
<path d="M726.552 88.0442C726.552 92.5029 726.35 96.0495 725.944 98.6842H673.048C674.163 104.359 676.392 108.868 679.736 112.212C683.182 115.455 687.59 117.076 692.96 117.076C699.75 117.076 705.475 114.543 710.136 109.476L720.624 120.572C713.328 128.578 704.056 132.58 692.808 132.58C681.358 132.58 672.288 128.882 665.6 121.484C659.014 114.087 655.72 104.207 655.72 91.8442C655.72 79.2789 659.064 69.3989 665.752 62.2042C672.44 54.9082 681.459 51.2602 692.808 51.2602C702.739 51.2602 710.846 54.4015 717.128 60.6842C723.411 66.8655 726.552 75.9855 726.552 88.0442ZM672.896 83.7882H709.376C708.87 78.1135 707.046 73.8575 703.904 71.0202C700.864 68.0815 697.166 66.6122 692.808 66.6122C687.235 66.6122 682.726 68.1322 679.28 71.1722C675.936 74.2122 673.808 78.4175 672.896 83.7882Z" fill="black"/>
<path d="M782.064 132.58C771.424 132.58 763.064 129.034 756.984 121.94C750.904 114.746 747.864 104.714 747.864 91.8442C747.864 79.3802 750.955 69.5002 757.136 62.2042C763.419 54.9082 771.576 51.2602 781.608 51.2602C789.918 51.2602 796.352 53.7429 800.912 58.7082V29.0682L818.392 21.0122V130.756H800.912V124.828C799.291 126.956 796.758 128.78 793.312 130.3C789.968 131.82 786.219 132.58 782.064 132.58ZM784.496 115.86C792.096 115.86 797.568 113.327 800.912 108.26V75.4282C797.264 70.3615 791.691 67.8282 784.192 67.8282C778.214 67.8282 773.603 69.9055 770.36 74.0602C767.118 78.2149 765.496 84.1429 765.496 91.8442C765.496 99.1402 767.118 104.967 770.36 109.324C773.704 113.682 778.416 115.86 784.496 115.86Z" fill="black"/>
<path d="M16.0272 20.1677L100.027 6.16773C107.342 4.94866 114 10.5892 114 18.0045V135.095C114 142.491 107.375 148.126 100.075 146.94L16.0753 133.29C10.2669 132.346 6 127.33 6 121.445V32.0045C6 26.1384 10.241 21.1321 16.0272 20.1677Z" stroke="#5144E4" stroke-width="12"/>
<path d="M92.3431 77.2562C92.3431 73.6006 93.9647 70.5013 96.6328 68.0237C98.5233 66.2681 99.68 63.653 98.6928 61.2694C97.7083 58.8925 95.0361 57.9618 92.4754 57.7127C89.1283 57.387 86.2399 55.6071 83.6945 53.0617C81.1475 50.5147 79.857 47.6243 79.8168 44.2745C79.786 41.7002 78.8307 39.0508 76.4526 38.0644C74.0728 37.0772 71.4458 38.2331 69.6075 40.0383C66.839 42.757 63.2004 44.4131 59.5 44.4131C55.8049 44.4131 52.1627 42.7563 49.3921 40.0366C47.5541 38.2324 44.9277 37.0765 42.5474 38.0602C40.1689 39.0432 39.2137 41.6912 39.1832 44.2646C39.1435 47.6157 37.8529 50.5084 35.3055 53.0617C32.7596 55.6076 29.8707 57.3877 26.5197 57.7128C23.9582 57.9614 21.2869 58.8957 20.3007 61.2728C19.3131 63.6534 20.4676 66.267 22.3562 68.0209C25.023 70.4977 26.6486 73.601 26.6486 77.2562C26.6486 80.9489 24.9939 84.5888 22.2774 87.3588C20.4709 89.2007 19.3117 91.8305 20.299 94.2141C21.2835 96.591 23.9319 97.5432 26.5045 97.5729C29.8573 97.6117 32.7512 98.9023 35.3055 101.451C37.8501 103.995 39.1406 106.883 39.1831 110.228C39.2158 112.808 40.1775 115.464 42.5606 116.451C44.9362 117.435 47.5521 116.278 49.3857 114.476C52.1545 111.754 55.7944 110.091 59.4917 110.091C63.1844 110.091 66.8243 111.746 69.5943 114.462C71.4362 116.269 74.066 117.428 76.4496 116.441C78.8265 115.456 79.7787 112.808 79.8084 110.235C79.8472 106.883 81.1378 103.991 83.6862 101.442C86.2293 98.8993 89.1148 97.1202 92.4582 96.7923C95.0217 96.5409 97.6975 95.6021 98.6849 93.223C99.6717 90.8452 98.5191 88.2372 96.6329 86.4851C93.9689 84.0107 92.3431 80.9116 92.3431 77.2562ZM59.5 94.9435C49.7309 94.9435 41.8127 87.0253 41.8127 77.2562C41.8127 67.4871 49.7309 59.5689 59.5 59.5689C69.2691 59.5689 77.1873 67.4871 77.1873 77.2562C77.1873 87.0253 69.2691 94.9435 59.5 94.9435Z" fill="#5144E4"/>
</g>
<defs>
<clipPath id="clip0">
<rect width="818" height="153" fill="white"/>
</clipPath>
</defs>
</svg>
